<svg width="401" height="266" viewBox="0 0 401 266" fill="none" xmlns="http://www.w3.org/2000/svg">
<rect x="-245.369" y="144.445" width="3" height="534.431" transform="rotate(-88.9032 -245.369 144.445)" fill="#E1C4A7"/>
<rect x="-242.696" y="128.634" width="3" height="534.431" transform="rotate(-88.9032 -242.696 128.634)" fill="#E1C4A7"/>
<rect x="-240.192" y="113.81" width="3" height="534.431" transform="rotate(-88.9032 -240.192 113.81)" fill="#E1C4A7"/>
<rect x="193" y="32" width="208" height="202" fill="#FBD0CD"/>
<path d="M313.234 160H273.625L273.906 157.469L304.516 126.578C310.641 120.266 314.141 114.453 315.016 109.141C315.828 104.516 315.016 100.734 312.578 97.7969C310.141 94.8281 306.484 93.3438 301.609 93.3438C296.859 93.3438 292.672 95.0312 289.047 98.4062C285.422 101.75 283.109 105.953 282.109 111.016H279.578C280.578 105.203 283.141 100.391 287.266 96.5781C291.422 92.7344 296.188 90.8125 301.562 90.8125C307.125 90.8125 311.391 92.5 314.359 95.875C317.359 99.2188 318.453 103.641 317.641 109.141C316.828 114.734 313.203 120.922 306.766 127.703L277.375 157.469H313.562L313.234 160Z" fill="black"/>
</svg>
