<svg width="394" height="266" viewBox="0 0 394 266" fill="none" xmlns="http://www.w3.org/2000/svg">
<rect x="45.6309" y="144.445" width="3" height="534.431" transform="rotate(-88.9032 45.6309 144.445)" fill="#E1C4A7"/>
<rect x="48.3038" y="128.634" width="3" height="534.431" transform="rotate(-88.9032 48.3038 128.634)" fill="#E1C4A7"/>
<rect x="50.8082" y="113.81" width="3" height="534.431" transform="rotate(-88.9032 50.8082 113.81)" fill="#E1C4A7"/>
<g filter="url(#filter0_d)">
<rect x="7" y="26" width="225" height="211" fill="#FCDEDB"/>
</g>
<path d="M109.297 121.906H113.469C118.875 121.906 123.531 120.578 127.438 117.922C131.344 115.234 133.703 111.641 134.516 107.141C135.328 102.516 134.469 98.7344 131.938 95.7969C129.406 92.8281 125.766 91.3438 121.016 91.3438C116.141 91.3438 111.875 92.8438 108.219 95.8438C104.594 98.8125 102.266 102.75 101.234 107.656L98.7031 107.609C99.6719 102.047 102.25 97.5312 106.438 94.0625C110.625 90.5625 115.484 88.8125 121.016 88.8125C126.453 88.8125 130.688 90.5469 133.719 94.0156C136.75 97.4531 137.859 101.891 137.047 107.328C136.547 110.859 135 114.016 132.406 116.797C129.844 119.578 126.438 121.688 122.188 123.125C126.219 124.25 129.25 126.312 131.281 129.312C133.344 132.281 134.062 135.812 133.438 139.906C132.594 145.5 130.078 150.078 125.891 153.641C121.703 157.172 116.703 158.938 110.891 158.938C107.047 158.938 103.609 158.094 100.578 156.406C97.5781 154.719 95.3438 152.344 93.875 149.281C92.4062 146.188 91.8906 142.766 92.3281 139.016H94.8594C94.2031 143.953 95.4062 148.094 98.4688 151.438C101.531 154.75 105.656 156.406 110.844 156.406C116.062 156.406 120.484 154.922 124.109 151.953C127.766 148.984 130.016 145.031 130.859 140.094C131.672 135.156 130.531 131.328 127.438 128.609C124.375 125.891 119.672 124.531 113.328 124.531H108.969L109.297 121.906Z" fill="black"/>
<defs>
<filter id="filter0_d" x="0" y="23" width="239" height="225" filterUnits="userSpaceOnUse" color-interpolation-filters="sRGB">
<feFlood flood-opacity="0" result="BackgroundImageFix"/>
<feColorMatrix in="SourceAlpha" type="matrix" values="0 0 0 0 0 0 0 0 0 0 0 0 0 0 0 0 0 0 127 0"/>
<feOffset dy="4"/>
<feGaussianBlur stdDeviation="3.5"/>
<feColorMatrix type="matrix" values="0 0 0 0 0.898039 0 0 0 0 0.898039 0 0 0 0 0.898039 0 0 0 1 0"/>
<feBlend mode="normal" in2="BackgroundImageFix" result="effect1_dropShadow"/>
<feBlend mode="normal" in="SourceGraphic" in2="effect1_dropShadow" result="shape"/>
</filter>
</defs>
</svg>
