<svg width="519" height="198" viewBox="0 0 519 198" fill="none" xmlns="http://www.w3.org/2000/svg">
<rect width="519" height="198" fill="black"/>
<path d="M169.719 119.609H160.977V128H160.344V110.938H170.914V111.57H160.977V118.953H169.719V119.609ZM179.035 115.777L178.215 115.707C177.137 115.707 176.234 116.059 175.508 116.762C174.781 117.457 174.305 118.434 174.078 119.691V128H173.445V115.32H174.078V117.957C174.422 117.074 174.938 116.375 175.625 115.859C176.312 115.344 177.176 115.086 178.215 115.086C178.582 115.086 178.879 115.129 179.105 115.215L179.035 115.777ZM185.809 128.234C184.785 128.234 183.844 127.961 182.984 127.414C182.133 126.859 181.465 126.102 180.98 125.141C180.496 124.18 180.254 123.113 180.254 121.941V121.414C180.254 120.242 180.488 119.168 180.957 118.191C181.426 117.215 182.07 116.453 182.891 115.906C183.711 115.359 184.605 115.086 185.574 115.086C186.988 115.086 188.145 115.59 189.043 116.598C189.941 117.605 190.391 118.93 190.391 120.57V121.238H180.887V121.93C180.887 122.961 181.102 123.918 181.531 124.801C181.969 125.676 182.566 126.363 183.324 126.863C184.09 127.363 184.918 127.613 185.809 127.613C186.66 127.613 187.383 127.473 187.977 127.191C188.578 126.902 189.109 126.461 189.57 125.867L190.016 126.184C189.07 127.551 187.668 128.234 185.809 128.234ZM185.574 115.719C184.34 115.719 183.293 116.18 182.434 117.102C181.574 118.016 181.07 119.184 180.922 120.605H189.758V120.453C189.758 119.594 189.574 118.797 189.207 118.062C188.848 117.32 188.348 116.746 187.707 116.34C187.074 115.926 186.363 115.719 185.574 115.719ZM197.902 128.234C196.879 128.234 195.938 127.961 195.078 127.414C194.227 126.859 193.559 126.102 193.074 125.141C192.59 124.18 192.348 123.113 192.348 121.941V121.414C192.348 120.242 192.582 119.168 193.051 118.191C193.52 117.215 194.164 116.453 194.984 115.906C195.805 115.359 196.699 115.086 197.668 115.086C199.082 115.086 200.238 115.59 201.137 116.598C202.035 117.605 202.484 118.93 202.484 120.57V121.238H192.98V121.93C192.98 122.961 193.195 123.918 193.625 124.801C194.062 125.676 194.66 126.363 195.418 126.863C196.184 127.363 197.012 127.613 197.902 127.613C198.754 127.613 199.477 127.473 200.07 127.191C200.672 126.902 201.203 126.461 201.664 125.867L202.109 126.184C201.164 127.551 199.762 128.234 197.902 128.234ZM197.668 115.719C196.434 115.719 195.387 116.18 194.527 117.102C193.668 118.016 193.164 119.184 193.016 120.605H201.852V120.453C201.852 119.594 201.668 118.797 201.301 118.062C200.941 117.32 200.441 116.746 199.801 116.34C199.168 115.926 198.457 115.719 197.668 115.719ZM206.223 128H205.59V110H206.223V128ZM218.574 128C218.418 127.461 218.34 126.688 218.34 125.68C217.84 126.492 217.156 127.121 216.289 127.566C215.422 128.012 214.441 128.234 213.348 128.234C212.176 128.234 211.23 127.918 210.512 127.285C209.801 126.645 209.445 125.812 209.445 124.789C209.445 123.625 209.969 122.695 211.016 122C212.07 121.297 213.469 120.938 215.211 120.922H218.34V119.07C218.34 118.008 218.004 117.184 217.332 116.598C216.668 116.012 215.715 115.719 214.473 115.719C213.316 115.719 212.352 116.016 211.578 116.609C210.805 117.203 210.418 117.938 210.418 118.812L209.785 118.789C209.785 117.758 210.238 116.883 211.145 116.164C212.051 115.445 213.16 115.086 214.473 115.086C215.84 115.086 216.926 115.43 217.73 116.117C218.535 116.797 218.949 117.758 218.973 119V125.059C218.973 126.449 219.082 127.395 219.301 127.895V128H218.574ZM213.348 127.613C214.535 127.613 215.555 127.348 216.406 126.816C217.266 126.285 217.91 125.539 218.34 124.578V121.566H215.41C213.598 121.566 212.211 121.926 211.25 122.645C210.469 123.23 210.078 123.961 210.078 124.836C210.078 125.609 210.387 126.266 211.004 126.805C211.621 127.344 212.402 127.613 213.348 127.613ZM223.695 118.273C224.109 117.289 224.719 116.512 225.523 115.941C226.328 115.371 227.219 115.086 228.195 115.086C229.555 115.086 230.562 115.473 231.219 116.246C231.883 117.012 232.219 118.172 232.227 119.727V128H231.594V119.703C231.586 118.344 231.309 117.34 230.762 116.691C230.215 116.035 229.348 115.707 228.16 115.707C227.066 115.707 226.117 116.098 225.312 116.879C224.516 117.652 223.977 118.652 223.695 119.879V128H223.062V115.32H223.695V118.273ZM240.512 127.602C241.66 127.602 242.605 127.297 243.348 126.688C244.098 126.078 244.508 125.234 244.578 124.156H245.211C245.148 125.383 244.676 126.371 243.793 127.121C242.91 127.863 241.816 128.234 240.512 128.234C238.926 128.234 237.664 127.66 236.727 126.512C235.797 125.363 235.332 123.805 235.332 121.836V121.414C235.332 119.492 235.797 117.957 236.727 116.809C237.664 115.66 238.918 115.086 240.488 115.086C241.832 115.086 242.941 115.488 243.816 116.293C244.691 117.098 245.156 118.168 245.211 119.504H244.578C244.523 118.363 244.121 117.449 243.371 116.762C242.629 116.066 241.668 115.719 240.488 115.719C239.074 115.719 237.965 116.23 237.16 117.254C236.363 118.27 235.965 119.684 235.965 121.496V121.906C235.965 123.68 236.367 125.074 237.172 126.09C237.984 127.098 239.098 127.602 240.512 127.602ZM252.957 128.234C251.934 128.234 250.992 127.961 250.133 127.414C249.281 126.859 248.613 126.102 248.129 125.141C247.645 124.18 247.402 123.113 247.402 121.941V121.414C247.402 120.242 247.637 119.168 248.105 118.191C248.574 117.215 249.219 116.453 250.039 115.906C250.859 115.359 251.754 115.086 252.723 115.086C254.137 115.086 255.293 115.59 256.191 116.598C257.09 117.605 257.539 118.93 257.539 120.57V121.238H248.035V121.93C248.035 122.961 248.25 123.918 248.68 124.801C249.117 125.676 249.715 126.363 250.473 126.863C251.238 127.363 252.066 127.613 252.957 127.613C253.809 127.613 254.531 127.473 255.125 127.191C255.727 126.902 256.258 126.461 256.719 125.867L257.164 126.184C256.219 127.551 254.816 128.234 252.957 128.234ZM252.723 115.719C251.488 115.719 250.441 116.18 249.582 117.102C248.723 118.016 248.219 119.184 248.07 120.605H256.906V120.453C256.906 119.594 256.723 118.797 256.355 118.062C255.996 117.32 255.496 116.746 254.855 116.34C254.223 115.926 253.512 115.719 252.723 115.719ZM268.508 124.332L269.199 127.062L272.914 115.32H273.559L277.25 127.062L277.965 124.332L280.543 115.32H281.281L277.59 128H276.957L273.828 118.473L273.23 116.199L272.586 118.473L269.504 128H268.871L265.191 115.32H265.918L268.508 124.332ZM288.957 128.234C287.934 128.234 286.992 127.961 286.133 127.414C285.281 126.859 284.613 126.102 284.129 125.141C283.645 124.18 283.402 123.113 283.402 121.941V121.414C283.402 120.242 283.637 119.168 284.105 118.191C284.574 117.215 285.219 116.453 286.039 115.906C286.859 115.359 287.754 115.086 288.723 115.086C290.137 115.086 291.293 115.59 292.191 116.598C293.09 117.605 293.539 118.93 293.539 120.57V121.238H284.035V121.93C284.035 122.961 284.25 123.918 284.68 124.801C285.117 125.676 285.715 126.363 286.473 126.863C287.238 127.363 288.066 127.613 288.957 127.613C289.809 127.613 290.531 127.473 291.125 127.191C291.727 126.902 292.258 126.461 292.719 125.867L293.164 126.184C292.219 127.551 290.816 128.234 288.957 128.234ZM288.723 115.719C287.488 115.719 286.441 116.18 285.582 117.102C284.723 118.016 284.219 119.184 284.07 120.605H292.906V120.453C292.906 119.594 292.723 118.797 292.355 118.062C291.996 117.32 291.496 116.746 290.855 116.34C290.223 115.926 289.512 115.719 288.723 115.719ZM306.184 121.777C306.184 123.754 305.758 125.324 304.906 126.488C304.055 127.652 302.895 128.234 301.426 128.234C300.473 128.234 299.621 128.039 298.871 127.648C298.121 127.25 297.531 126.699 297.102 125.996V128H296.469V110H297.102V117.629C297.547 116.793 298.133 116.16 298.859 115.73C299.594 115.301 300.441 115.086 301.402 115.086C302.887 115.086 304.055 115.656 304.906 116.797C305.758 117.93 306.184 119.523 306.184 121.578V121.777ZM305.527 121.531C305.527 119.711 305.164 118.289 304.438 117.266C303.719 116.234 302.711 115.719 301.414 115.719C300.352 115.719 299.449 115.992 298.707 116.539C297.973 117.086 297.438 117.898 297.102 118.977V124.789C297.438 125.688 297.973 126.383 298.707 126.875C299.449 127.359 300.359 127.602 301.438 127.602C302.742 127.602 303.75 127.082 304.461 126.043C305.172 125.004 305.527 123.5 305.527 121.531ZM315.711 128V110.938H320.434C321.754 110.938 322.949 111.25 324.02 111.875C325.09 112.5 325.93 113.379 326.539 114.512C327.148 115.637 327.461 116.898 327.477 118.297V120.512C327.477 121.934 327.176 123.215 326.574 124.355C325.98 125.496 325.148 126.387 324.078 127.027C323.008 127.668 321.812 127.992 320.492 128H315.711ZM316.344 111.57V127.367H320.434C321.629 127.367 322.715 127.078 323.691 126.5C324.676 125.914 325.445 125.102 326 124.062C326.555 123.016 326.836 121.855 326.844 120.582V118.391C326.844 117.117 326.57 115.961 326.023 114.922C325.484 113.883 324.727 113.07 323.75 112.484C322.781 111.891 321.707 111.586 320.527 111.57H316.344ZM335.645 128.234C334.621 128.234 333.68 127.961 332.82 127.414C331.969 126.859 331.301 126.102 330.816 125.141C330.332 124.18 330.09 123.113 330.09 121.941V121.414C330.09 120.242 330.324 119.168 330.793 118.191C331.262 117.215 331.906 116.453 332.727 115.906C333.547 115.359 334.441 115.086 335.41 115.086C336.824 115.086 337.98 115.59 338.879 116.598C339.777 117.605 340.227 118.93 340.227 120.57V121.238H330.723V121.93C330.723 122.961 330.938 123.918 331.367 124.801C331.805 125.676 332.402 126.363 333.16 126.863C333.926 127.363 334.754 127.613 335.645 127.613C336.496 127.613 337.219 127.473 337.812 127.191C338.414 126.902 338.945 126.461 339.406 125.867L339.852 126.184C338.906 127.551 337.504 128.234 335.645 128.234ZM335.41 115.719C334.176 115.719 333.129 116.18 332.27 117.102C331.41 118.016 330.906 119.184 330.758 120.605H339.594V120.453C339.594 119.594 339.41 118.797 339.043 118.062C338.684 117.32 338.184 116.746 337.543 116.34C336.91 115.926 336.199 115.719 335.41 115.719ZM346.742 126.992L351.301 115.32H351.98L347.047 128H346.426L341.504 115.32H342.184L346.742 126.992ZM358.871 128.234C357.848 128.234 356.906 127.961 356.047 127.414C355.195 126.859 354.527 126.102 354.043 125.141C353.559 124.18 353.316 123.113 353.316 121.941V121.414C353.316 120.242 353.551 119.168 354.02 118.191C354.488 117.215 355.133 116.453 355.953 115.906C356.773 115.359 357.668 115.086 358.637 115.086C360.051 115.086 361.207 115.59 362.105 116.598C363.004 117.605 363.453 118.93 363.453 120.57V121.238H353.949V121.93C353.949 122.961 354.164 123.918 354.594 124.801C355.031 125.676 355.629 126.363 356.387 126.863C357.152 127.363 357.98 127.613 358.871 127.613C359.723 127.613 360.445 127.473 361.039 127.191C361.641 126.902 362.172 126.461 362.633 125.867L363.078 126.184C362.133 127.551 360.73 128.234 358.871 128.234ZM358.637 115.719C357.402 115.719 356.355 116.18 355.496 117.102C354.637 118.016 354.133 119.184 353.984 120.605H362.82V120.453C362.82 119.594 362.637 118.797 362.27 118.062C361.91 117.32 361.41 116.746 360.77 116.34C360.137 115.926 359.426 115.719 358.637 115.719ZM367.191 128H366.559V110H367.191V128ZM370.391 121.414C370.391 120.203 370.621 119.117 371.082 118.156C371.551 117.188 372.207 116.434 373.051 115.895C373.902 115.355 374.863 115.086 375.934 115.086C376.996 115.086 377.949 115.348 378.793 115.871C379.637 116.395 380.293 117.137 380.762 118.098C381.238 119.059 381.48 120.141 381.488 121.344V121.906C381.488 123.125 381.258 124.215 380.797 125.176C380.336 126.137 379.68 126.887 378.828 127.426C377.984 127.965 377.027 128.234 375.957 128.234C374.887 128.234 373.926 127.969 373.074 127.438C372.23 126.906 371.574 126.164 371.105 125.211C370.637 124.25 370.398 123.172 370.391 121.977V121.414ZM371.023 121.906C371.023 122.961 371.23 123.93 371.645 124.812C372.066 125.688 372.648 126.371 373.391 126.863C374.141 127.355 374.996 127.602 375.957 127.602C377.402 127.602 378.578 127.059 379.484 125.973C380.398 124.887 380.855 123.488 380.855 121.777V121.414C380.855 120.375 380.645 119.414 380.223 118.531C379.801 117.648 379.215 116.961 378.465 116.469C377.723 115.969 376.879 115.719 375.934 115.719C374.488 115.719 373.309 116.27 372.395 117.371C371.48 118.473 371.023 119.859 371.023 121.531V121.906ZM394.262 121.777C394.262 123.754 393.836 125.324 392.984 126.488C392.133 127.652 390.973 128.234 389.504 128.234C388.543 128.234 387.688 128.039 386.938 127.648C386.188 127.258 385.602 126.719 385.18 126.031V132.875H384.547V115.32H385.18V117.582C385.617 116.777 386.207 116.16 386.949 115.73C387.691 115.301 388.535 115.086 389.48 115.086C390.965 115.086 392.133 115.656 392.984 116.797C393.836 117.93 394.262 119.523 394.262 121.578V121.777ZM393.617 121.531C393.617 119.711 393.254 118.289 392.527 117.266C391.809 116.234 390.797 115.719 389.492 115.719C388.43 115.719 387.527 115.996 386.785 116.551C386.043 117.098 385.508 117.887 385.18 118.918V124.848C385.508 125.723 386.043 126.402 386.785 126.887C387.535 127.363 388.445 127.602 389.516 127.602C390.812 127.602 391.82 127.086 392.539 126.055C393.258 125.023 393.617 123.516 393.617 121.531ZM402.277 128.234C401.254 128.234 400.312 127.961 399.453 127.414C398.602 126.859 397.934 126.102 397.449 125.141C396.965 124.18 396.723 123.113 396.723 121.941V121.414C396.723 120.242 396.957 119.168 397.426 118.191C397.895 117.215 398.539 116.453 399.359 115.906C400.18 115.359 401.074 115.086 402.043 115.086C403.457 115.086 404.613 115.59 405.512 116.598C406.41 117.605 406.859 118.93 406.859 120.57V121.238H397.355V121.93C397.355 122.961 397.57 123.918 398 124.801C398.438 125.676 399.035 126.363 399.793 126.863C400.559 127.363 401.387 127.613 402.277 127.613C403.129 127.613 403.852 127.473 404.445 127.191C405.047 126.902 405.578 126.461 406.039 125.867L406.484 126.184C405.539 127.551 404.137 128.234 402.277 128.234ZM402.043 115.719C400.809 115.719 399.762 116.18 398.902 117.102C398.043 118.016 397.539 119.184 397.391 120.605H406.227V120.453C406.227 119.594 406.043 118.797 405.676 118.062C405.316 117.32 404.816 116.746 404.176 116.34C403.543 115.926 402.832 115.719 402.043 115.719ZM415.402 115.777L414.582 115.707C413.504 115.707 412.602 116.059 411.875 116.762C411.148 117.457 410.672 118.434 410.445 119.691V128H409.812V115.32H410.445V117.957C410.789 117.074 411.305 116.375 411.992 115.859C412.68 115.344 413.543 115.086 414.582 115.086C414.949 115.086 415.246 115.129 415.473 115.215L415.402 115.777Z" fill="white"/>
<path d="M159.76 97V71.4062H167.055C169.387 71.4062 171.139 71.9746 172.311 73.1113C173.494 74.248 174.086 75.9531 174.086 78.2266C174.086 79.4219 173.787 80.4766 173.189 81.3906C172.592 82.3047 171.783 83.0137 170.764 83.5176C171.936 83.8691 172.861 84.5898 173.541 85.6797C174.232 86.7695 174.578 88.082 174.578 89.6172C174.578 91.9141 173.945 93.7188 172.68 95.0312C171.426 96.3438 169.633 97 167.301 97H159.76ZM162.977 85.0293V94.2402H167.371C168.59 94.2402 169.557 93.8418 170.271 93.0449C170.986 92.2363 171.344 91.1055 171.344 89.6523C171.344 86.5703 170.043 85.0293 167.441 85.0293H162.977ZM162.977 82.3223H167.107C168.221 82.3223 169.117 81.9473 169.797 81.1973C170.488 80.4473 170.834 79.4512 170.834 78.209C170.834 76.8027 170.523 75.7832 169.902 75.1504C169.281 74.5059 168.332 74.1836 167.055 74.1836H162.977V82.3223ZM182.33 97H179.219V77.9805H182.33V97ZM182.576 72.9355C182.576 73.4629 182.43 73.9023 182.137 74.2539C181.844 74.6055 181.398 74.7812 180.801 74.7812C180.215 74.7812 179.775 74.6055 179.482 74.2539C179.189 73.9023 179.043 73.4629 179.043 72.9355C179.043 72.4082 179.189 71.9629 179.482 71.5996C179.775 71.2363 180.215 71.0547 180.801 71.0547C181.387 71.0547 181.826 71.2422 182.119 71.6172C182.424 71.9805 182.576 72.4199 182.576 72.9355ZM194.037 97.3516C191.67 97.3516 189.854 96.6484 188.588 95.2422C187.322 93.8242 186.678 91.75 186.654 89.0195V86.7168C186.654 83.8809 187.27 81.6602 188.5 80.0547C189.742 78.4375 191.471 77.6289 193.686 77.6289C195.912 77.6289 197.576 78.3379 198.678 79.7559C199.779 81.1738 200.342 83.3828 200.365 86.3828V88.4219H189.748V88.8613C189.748 90.9004 190.129 92.3828 190.891 93.3086C191.664 94.2344 192.771 94.6973 194.213 94.6973C195.127 94.6973 195.93 94.5273 196.621 94.1875C197.324 93.8359 197.98 93.2852 198.59 92.5352L200.207 94.5039C198.859 96.4023 196.803 97.3516 194.037 97.3516ZM193.686 80.3008C192.396 80.3008 191.441 80.7461 190.82 81.6367C190.199 82.5156 189.848 83.8867 189.766 85.75H197.254V85.3281C197.172 83.5234 196.844 82.2344 196.27 81.4609C195.707 80.6875 194.846 80.3008 193.686 80.3008ZM211.967 80.8984C211.533 80.8164 211.064 80.7754 210.561 80.7754C208.967 80.7754 207.854 81.6484 207.221 83.3945V97H204.109V77.9805H207.133L207.186 79.9141C208.018 78.3906 209.195 77.6289 210.719 77.6289C211.211 77.6289 211.621 77.7109 211.949 77.875L211.967 80.8984ZM218.014 77.9805L218.102 80.0371C219.309 78.4316 220.85 77.6289 222.725 77.6289C226.088 77.6289 227.793 79.873 227.84 84.3613V97H224.746V84.502C224.746 83.0137 224.494 81.959 223.99 81.3379C223.498 80.7051 222.754 80.3887 221.758 80.3887C220.984 80.3887 220.287 80.6465 219.666 81.1621C219.057 81.6777 218.564 82.3516 218.189 83.1836V97H215.078V77.9805H218.014ZM242.307 97C242.119 96.5898 241.984 95.8984 241.902 94.9258C240.801 96.543 239.395 97.3516 237.684 97.3516C235.961 97.3516 234.613 96.8711 233.641 95.9102C232.68 94.9375 232.199 93.5723 232.199 91.8145C232.199 89.8809 232.855 88.3457 234.168 87.209C235.48 86.0723 237.279 85.4922 239.564 85.4688H241.85V83.4473C241.85 82.3105 241.598 81.502 241.094 81.0215C240.59 80.541 239.822 80.3008 238.791 80.3008C237.854 80.3008 237.092 80.582 236.506 81.1445C235.92 81.6953 235.627 82.3984 235.627 83.2539H232.516C232.516 82.2812 232.803 81.3555 233.377 80.4766C233.951 79.5859 234.725 78.8887 235.697 78.3848C236.67 77.8809 237.754 77.6289 238.949 77.6289C240.895 77.6289 242.371 78.1152 243.379 79.0879C244.398 80.0488 244.92 81.4551 244.943 83.3066V92.9043C244.955 94.3691 245.154 95.6406 245.541 96.7188V97H242.307ZM238.158 94.5215C238.92 94.5215 239.646 94.3105 240.338 93.8887C241.029 93.4668 241.533 92.9395 241.85 92.3066V87.7715H240.092C238.615 87.7949 237.449 88.1289 236.594 88.7734C235.738 89.4062 235.311 90.2969 235.311 91.4453C235.311 92.5234 235.527 93.3086 235.961 93.8008C236.395 94.2812 237.127 94.5215 238.158 94.5215ZM253.855 73.375V77.9805H256.721V80.4941H253.855V92.2891C253.855 93.0391 253.979 93.6074 254.225 93.9941C254.471 94.3809 254.893 94.5742 255.49 94.5742C255.9 94.5742 256.316 94.5039 256.738 94.3633L256.703 97C256 97.2344 255.279 97.3516 254.541 97.3516C253.311 97.3516 252.373 96.9121 251.729 96.0332C251.084 95.1543 250.762 93.9121 250.762 92.3066V80.4941H247.861V77.9805H250.762V73.375H253.855ZM272.348 86.9805V97H269.131V71.4062H277.287C279.666 71.4062 281.535 72.1211 282.895 73.5508C284.254 74.9688 284.934 76.8613 284.934 79.2285C284.934 81.6895 284.283 83.5879 282.982 84.9238C281.693 86.248 279.871 86.9336 277.516 86.9805H272.348ZM272.348 84.2207H277.287C278.717 84.2207 279.812 83.793 280.574 82.9375C281.336 82.082 281.717 80.8574 281.717 79.2637C281.717 77.7285 281.324 76.498 280.539 75.5723C279.754 74.6465 278.676 74.1836 277.305 74.1836H272.348V84.2207ZM298.24 97C298.053 96.5898 297.918 95.8984 297.836 94.9258C296.734 96.543 295.328 97.3516 293.617 97.3516C291.895 97.3516 290.547 96.8711 289.574 95.9102C288.613 94.9375 288.133 93.5723 288.133 91.8145C288.133 89.8809 288.789 88.3457 290.102 87.209C291.414 86.0723 293.213 85.4922 295.498 85.4688H297.783V83.4473C297.783 82.3105 297.531 81.502 297.027 81.0215C296.523 80.541 295.756 80.3008 294.725 80.3008C293.787 80.3008 293.025 80.582 292.439 81.1445C291.854 81.6953 291.561 82.3984 291.561 83.2539H288.449C288.449 82.2812 288.736 81.3555 289.311 80.4766C289.885 79.5859 290.658 78.8887 291.631 78.3848C292.604 77.8809 293.688 77.6289 294.883 77.6289C296.828 77.6289 298.305 78.1152 299.312 79.0879C300.332 80.0488 300.854 81.4551 300.877 83.3066V92.9043C300.889 94.3691 301.088 95.6406 301.475 96.7188V97H298.24ZM294.092 94.5215C294.854 94.5215 295.58 94.3105 296.271 93.8887C296.963 93.4668 297.467 92.9395 297.783 92.3066V87.7715H296.025C294.549 87.7949 293.383 88.1289 292.527 88.7734C291.672 89.4062 291.244 90.2969 291.244 91.4453C291.244 92.5234 291.461 93.3086 291.895 93.8008C292.328 94.2812 293.061 94.5215 294.092 94.5215ZM315.414 95.3301C314.383 96.6777 312.877 97.3516 310.896 97.3516C309.174 97.3516 307.873 96.7598 306.994 95.5762C306.115 94.3809 305.67 92.6465 305.658 90.373V77.9805H308.752V90.1445C308.752 93.1094 309.643 94.5918 311.424 94.5918C313.311 94.5918 314.611 93.748 315.326 92.0605V77.9805H318.438V97H315.484L315.414 95.3301ZM326.471 97H323.359V70H326.471V97ZM334.732 97H331.621V77.9805H334.732V97ZM334.979 72.9355C334.979 73.4629 334.832 73.9023 334.539 74.2539C334.246 74.6055 333.801 74.7812 333.203 74.7812C332.617 74.7812 332.178 74.6055 331.885 74.2539C331.592 73.9023 331.445 73.4629 331.445 72.9355C331.445 72.4082 331.592 71.9629 331.885 71.5996C332.178 71.2363 332.617 71.0547 333.203 71.0547C333.789 71.0547 334.229 71.2422 334.521 71.6172C334.826 71.9805 334.979 72.4199 334.979 72.9355ZM342.572 77.9805L342.66 80.0371C343.867 78.4316 345.408 77.6289 347.283 77.6289C350.646 77.6289 352.352 79.873 352.398 84.3613V97H349.305V84.502C349.305 83.0137 349.053 81.959 348.549 81.3379C348.057 80.7051 347.312 80.3887 346.316 80.3887C345.543 80.3887 344.846 80.6465 344.225 81.1621C343.615 81.6777 343.123 82.3516 342.748 83.1836V97H339.637V77.9805H342.572ZM366.865 97C366.678 96.5898 366.543 95.8984 366.461 94.9258C365.359 96.543 363.953 97.3516 362.242 97.3516C360.52 97.3516 359.172 96.8711 358.199 95.9102C357.238 94.9375 356.758 93.5723 356.758 91.8145C356.758 89.8809 357.414 88.3457 358.727 87.209C360.039 86.0723 361.838 85.4922 364.123 85.4688H366.408V83.4473C366.408 82.3105 366.156 81.502 365.652 81.0215C365.148 80.541 364.381 80.3008 363.35 80.3008C362.412 80.3008 361.65 80.582 361.064 81.1445C360.479 81.6953 360.186 82.3984 360.186 83.2539H357.074C357.074 82.2812 357.361 81.3555 357.936 80.4766C358.51 79.5859 359.283 78.8887 360.256 78.3848C361.229 77.8809 362.312 77.6289 363.508 77.6289C365.453 77.6289 366.93 78.1152 367.938 79.0879C368.957 80.0488 369.479 81.4551 369.502 83.3066V92.9043C369.514 94.3691 369.713 95.6406 370.1 96.7188V97H366.865ZM362.717 94.5215C363.479 94.5215 364.205 94.3105 364.896 93.8887C365.588 93.4668 366.092 92.9395 366.408 92.3066V87.7715H364.65C363.174 87.7949 362.008 88.1289 361.152 88.7734C360.297 89.4062 359.869 90.2969 359.869 91.4453C359.869 92.5234 360.086 93.3086 360.52 93.8008C360.953 94.2812 361.686 94.5215 362.717 94.5215Z" fill="white"/>
<rect x="58.368" y="82.4314" width="62.3114" height="63.7084" transform="rotate(-42.9186 58.368 82.4314)" fill="white"/>
<rect x="61.1136" y="86.0306" width="58.647" height="59.5704" transform="rotate(-43.7041 61.1136 86.0306)" fill="#F4C3BF"/>
<rect x="64.3372" y="123.527" width="53.1468" height="57.5739" transform="rotate(-42.9186 64.3372 123.527)" stroke="white" stroke-width="4"/>
</svg>
