<svg width="189" height="176" viewBox="0 0 189 176" fill="none" xmlns="http://www.w3.org/2000/svg">
<g clip-path="url(#clip0)">
<path d="M166.927 142.645C163.12 151.056 158.29 159.191 152.18 166.554C152.044 166.72 151.907 166.882 151.769 167.047L137.291 159.288C137.38 159.122 137.477 158.935 137.581 158.73C143.8 146.685 181.341 73.2064 180.155 56.5645C180.293 57.937 184.743 103.328 166.927 142.645Z" fill="#E6E6E6"/>
<path d="M154.973 168.051C154.77 168.181 154.562 168.309 154.353 168.432L143.493 162.612C143.644 162.49 143.821 162.345 144.025 162.183C147.352 159.479 157.246 151.365 166.927 142.645C177.331 133.274 187.491 123.205 189 118.398C188.693 119.501 179.171 153.002 154.973 168.051Z" fill="#E6E6E6"/>
<path d="M55.9396 176C86.8342 176 111.879 173.193 111.879 169.73C111.879 166.268 86.8342 163.46 55.9396 163.46C25.045 163.46 0 166.268 0 169.73C0 173.193 25.045 176 55.9396 176Z" fill="#E6E6E6"/>
<path d="M25.3095 172.677C34.5663 172.677 42.0704 164.182 42.0704 153.703C42.0704 143.224 34.5663 134.729 25.3095 134.729C16.0527 134.729 8.54852 143.224 8.54852 153.703C8.54852 164.182 16.0527 172.677 25.3095 172.677Z" fill="#F4C3BF"/>
<path d="M32.0233 145.74H18.5956C18.0022 145.741 17.4334 146.008 17.0138 146.483C16.5943 146.958 16.3583 147.602 16.3576 148.274V159.131C16.3583 159.803 16.5943 160.447 17.0138 160.922C17.4334 161.397 18.0022 161.664 18.5956 161.665H32.0233C32.6167 161.664 33.1855 161.397 33.6051 160.922C34.0246 160.447 34.2606 159.803 34.2613 159.131V148.274C34.2606 147.602 34.0246 146.958 33.6051 146.483C33.1855 146.008 32.6167 145.741 32.0233 145.74V145.74ZM32.0233 147.188C32.1035 147.188 32.1833 147.2 32.2609 147.223L25.311 153.499L18.4018 147.21C18.4655 147.195 18.5305 147.188 18.5956 147.188H32.0233ZM32.0233 160.217H18.5956C18.3413 160.217 18.0975 160.102 17.9177 159.899C17.7379 159.695 17.6367 159.419 17.6364 159.131V148.371L24.9088 154.991C25.022 155.094 25.1629 155.15 25.3082 155.15C25.4535 155.151 25.5946 155.095 25.7082 154.992L32.9825 148.423V159.131C32.9822 159.419 32.881 159.695 32.7012 159.899C32.5214 160.102 32.2776 160.217 32.0233 160.217V160.217Z" fill="white"/>
<path d="M71.3193 105.61L57.6239 106.607L53.9505 91.8872L65.9878 88.6938L71.3193 105.61Z" fill="#2F2E41"/>
<path d="M89.9938 124.886L93.7441 124.921C94.1236 124.924 94.4992 124.834 94.8447 124.656C95.1902 124.479 95.4973 124.218 95.7446 123.892C95.9919 123.566 96.1735 123.183 96.2766 122.77C96.3797 122.356 96.4019 121.922 96.3417 121.498V121.498C96.2769 121.042 96.1183 120.609 95.8787 120.234C95.6392 119.86 95.3253 119.554 94.9624 119.342C94.5994 119.13 94.1976 119.018 93.7892 119.013C93.3808 119.009 92.9772 119.114 92.611 119.318L89.0743 121.294L76.9778 124.348L71.7955 118.35L68.8187 123.9L75.8118 130.016L89.9938 124.886Z" fill="#FFB8B8"/>
<path d="M89.2909 168.749L84.8724 169.711C81.8543 158.941 78.5843 148.742 78.5846 140.853C74.3134 146.235 69.0169 149.313 62.7799 150.28L63.4597 138.352L68.558 135.274L76.3608 131.197C77.044 130.841 77.781 130.634 78.5324 130.589C79.9932 130.502 81.4308 131.03 82.5684 132.071C83.7061 133.112 84.4634 134.593 84.6945 136.228L89.2909 168.749Z" fill="#FFB8B8"/>
<path d="M88.6111 163.939C88.6111 163.939 89.0348 163.736 90.7268 166.243C90.7268 166.243 96.1302 167.382 95.2365 170.14C94.3429 172.898 87.3954 172.812 86.7351 172.39C86.0749 171.969 80.8201 171.977 81.1833 170.103C81.5465 168.229 83.6398 166.135 83.6398 166.135C83.6398 166.135 84.6022 168.343 86.0982 168.352C88.1013 168.364 88.7811 166.44 88.4412 164.517C88.438 164.499 88.624 163.951 88.6111 163.939Z" fill="#2F2E41"/>
<path d="M54.6114 157.379C54.6114 157.379 55.2734 159.428 52.2929 160.662C52.2929 160.662 49.3694 166.928 47.0225 164.894C44.6755 162.86 47.111 154.337 47.7393 153.667C48.3676 152.997 50.1384 146.525 51.8155 147.607C53.4926 148.689 54.7958 151.974 54.7958 151.974C54.7958 151.974 49.3957 153.938 51.9502 158.481C51.9502 158.481 53.064 158.567 54.6114 157.379Z" fill="#2F2E41"/>
<path d="M60.7875 103.046C63.8608 103.046 66.3523 100.226 66.3523 96.7464C66.3523 93.2672 63.8608 90.4468 60.7875 90.4468C57.7141 90.4468 55.2226 93.2672 55.2226 96.7464C55.2226 100.226 57.7141 103.046 60.7875 103.046Z" fill="#FFB8B8"/>
<path d="M65.584 113.439H55.8972L53.8579 106.706C57.3934 105.484 56.5676 102.015 55.8972 98.6255H65.584C63.7061 102.866 61.373 108.866 65.9238 109.976L65.584 113.439Z" fill="#FFB8B8"/>
<path d="M68.1331 148.837L66.3721 150.353C65.6148 151.004 64.7202 151.42 63.7771 151.559C62.8339 151.698 61.875 151.556 60.9956 151.146V151.146C55.9515 146.866 51.8376 148.149 48.5898 154.609C44.6941 149.632 44.2633 142.423 47.7401 134.986L67.0285 135.467L70.9372 134.12L68.1331 148.837Z" fill="#2F2E41"/>
<path d="M61.7094 171.127C60.6041 171.512 59.4144 171.444 58.3488 170.936C57.2831 170.428 56.4094 169.511 55.8808 168.347C54.1474 166.619 52.6848 164.144 51.4162 161.135C50.5061 158.927 49.7245 156.655 49.0766 154.332C48.1988 151.263 49.6665 147.91 52.3983 146.992C52.4796 146.964 52.5618 146.939 52.645 146.914C56.2918 145.855 60.0368 148.236 61.2834 152.258L64.9082 163.952C65.1277 164.66 65.2186 165.411 65.1756 166.16C65.1325 166.909 64.9564 167.64 64.6577 168.31C64.359 168.98 63.9439 169.575 63.4373 170.059C62.9307 170.543 62.343 170.906 61.7094 171.127V171.127Z" fill="#FFB8B8"/>
<path opacity="0.2" d="M50.799 159.803C50.799 159.803 55.0476 165.19 55.8973 168.268Z" fill="black"/>
<path d="M34.3214 134.381L32.8995 138.31C32.7556 138.708 32.6901 139.136 32.7074 139.565C32.7248 139.994 32.8246 140.414 33 140.795C33.1753 141.176 33.422 141.509 33.7228 141.771C34.0235 142.033 34.3711 142.217 34.7414 142.312V142.312C35.1398 142.413 35.5538 142.407 35.9499 142.295C36.346 142.182 36.7132 141.966 37.0219 141.663C37.3307 141.36 37.5724 140.98 37.7275 140.552C37.8827 140.124 37.947 139.661 37.9153 139.2L37.6089 134.749L39.5984 120.901L46.4428 117.683L42.9968 112.492L35.3827 117.57L34.3214 134.381Z" fill="#FFB8B8"/>
<path d="M68.303 134.986C63.4202 144.271 55.5674 142.641 47.2302 135.371C50.7463 132.394 48.5897 123.828 45.5308 123.25C42.3677 122.654 41.9873 115.331 40.7724 111.707L55.5574 105.551L59.551 109.11L63.5447 108.052L65.1819 108.71C66.2475 109.138 67.1717 109.925 67.8303 110.966C68.4888 112.006 68.8501 113.25 68.8656 114.529C65.5105 120.017 63.0267 125.87 68.303 134.986Z" fill="#F4C3BF"/>
<path d="M70.1724 127.483C70.1724 127.483 69.4199 123.09 66.9496 124.469C64.4793 125.848 64.3094 122 64.3094 122L66.2637 109.207L74.251 118.826L70.1724 127.483Z" fill="#F4C3BF"/>
<path d="M65.9851 88.6385C65.9851 88.6385 68.8053 89.8357 68.8448 94.086C68.8432 94.8011 68.7533 95.5125 68.5777 96.1994C68.3881 96.9786 68.2277 98.6717 69.4438 100.943C70.2385 102.417 70.9554 103.944 71.5909 105.514V105.514L68.4024 105.83L67.9223 99.8459C67.6895 96.9448 67.0807 94.0983 66.1155 91.3979L66.0953 91.3416C66.0953 91.3416 64.6113 94.2026 61.8342 94.0862L62.8627 93.005C62.8627 93.005 59.3719 94.4533 57.4777 94.7322C57.2615 94.7641 57.0571 94.8621 56.8865 95.0157C56.7159 95.1694 56.5855 95.3728 56.5095 95.6041C56.4335 95.8354 56.4146 96.0858 56.4549 96.3283C56.4953 96.5708 56.5933 96.7963 56.7385 96.9804C56.7495 96.9943 56.7607 97.0082 56.7722 97.0221C57.9183 98.4194 60.1959 101.663 58.7265 104.075C57.2571 106.487 58.4253 107.21 58.4253 107.21L56.2874 105.772L55.3176 105.056L55.2882 105.955L50.1527 105.065C50.1527 105.065 48.7715 104.782 51.8719 101.089C51.8719 101.089 52.7061 99.6397 52.4041 98.3467C52.1534 97.3631 52.113 96.3262 52.2862 95.3214C53.0905 91.1396 55.9796 82.8798 65.9851 88.6385Z" fill="#2F2E41"/>
<path d="M167.458 41.0185H166.62V15.037C166.62 11.0489 165.22 7.22422 162.729 4.40424C160.238 1.58425 156.86 0 153.337 0H104.712C101.189 0 97.8103 1.58425 95.3193 4.40424C92.8282 7.22422 91.4288 11.0489 91.4288 15.037V157.574C91.4288 161.562 92.8282 165.387 95.3193 168.207C97.8103 171.027 101.189 172.611 104.712 172.611H153.337C156.859 172.611 160.238 171.027 162.729 168.207C165.22 165.387 166.62 161.562 166.62 157.574V59.5126H167.458L167.458 41.0185Z" fill="#3F3D56"/>
<path d="M153.873 3.91164H147.526C147.818 4.72181 147.929 5.60085 147.85 6.47132C147.772 7.34178 147.505 8.17695 147.074 8.90322C146.643 9.62949 146.06 10.2246 145.378 10.636C144.696 11.0475 143.935 11.2627 143.162 11.2627H115.305C114.532 11.2626 113.772 11.0474 113.089 10.6359C112.407 10.2245 111.825 9.62949 111.394 8.90332C110.963 8.17715 110.696 7.34211 110.617 6.47176C110.539 5.60141 110.65 4.72246 110.942 3.91235H105.013C102.382 3.91235 99.8585 5.09549 97.9982 7.20149C96.1378 9.3075 95.0927 12.1639 95.0927 15.1422V157.469C95.0927 160.448 96.1378 163.304 97.9982 165.41C99.8585 167.516 102.382 168.699 105.013 168.699H153.871C156.502 168.699 159.025 167.516 160.885 165.41C162.746 163.304 163.791 160.448 163.791 157.469V157.469V15.1415C163.791 12.1631 162.746 9.30677 160.885 7.20076C159.025 5.09476 156.502 3.91162 153.871 3.91162H153.873V3.91164Z" fill="white"/>
<path d="M129.527 160.746C132.535 160.746 134.974 157.985 134.974 154.579C134.974 151.173 132.535 148.413 129.527 148.413C126.518 148.413 124.079 151.173 124.079 154.579C124.079 157.985 126.518 160.746 129.527 160.746Z" fill="#E6E6E6"/>
<path d="M107.428 97.5503C106.913 97.5503 106.494 98.0917 106.494 98.757C106.494 99.4223 106.913 99.9637 107.428 99.9637H151.455C151.97 99.9637 152.389 99.4223 152.389 98.757C152.389 98.0917 151.97 97.5503 151.455 97.5503H107.428Z" fill="#E6E6E6"/>
<path d="M107.428 126.012C106.913 126.012 106.494 126.553 106.494 127.218C106.494 127.884 106.913 128.425 107.428 128.425H151.455C151.97 128.425 152.389 127.884 152.389 127.218C152.389 126.553 151.97 126.012 151.455 126.012H107.428Z" fill="#E6E6E6"/>
<path d="M107.428 104.791C106.913 104.791 106.494 105.332 106.494 105.997C106.494 106.663 106.913 107.204 107.428 107.204H126.373C126.888 107.204 127.307 106.663 127.307 105.997C127.307 105.332 126.888 104.791 126.373 104.791H107.428Z" fill="#E6E6E6"/>
<path d="M107.428 111.692C106.913 111.692 106.494 112.234 106.494 112.899C106.494 113.564 106.913 114.106 107.428 114.106H151.455C151.97 114.106 152.389 113.564 152.389 112.899C152.389 112.234 151.97 111.692 151.455 111.692H107.428Z" fill="#E6E6E6"/>
<path d="M107.428 118.933C106.913 118.933 106.494 119.474 106.494 120.139C106.494 120.805 106.913 121.346 107.428 121.346H126.373C126.888 121.346 127.307 120.805 127.307 120.139C127.307 119.474 126.888 118.933 126.373 118.933H107.428Z" fill="#E6E6E6"/>
<path d="M115.74 42.6035H143.147C143.449 42.6039 143.74 42.7402 143.954 42.9826C144.168 43.2249 144.288 43.5535 144.289 43.8963V76.2085C144.288 76.5512 144.168 76.8798 143.954 77.1221C143.74 77.3645 143.449 77.5008 143.147 77.5012H115.74C115.437 77.5008 115.147 77.3645 114.933 77.1221C114.718 76.8798 114.598 76.5512 114.598 76.2085V43.8963C114.598 43.5535 114.718 43.2249 114.933 42.9826C115.147 42.7402 115.437 42.6039 115.74 42.6035Z" fill="#F4C3BF"/>
<path d="M137.307 70.8378C137.409 70.838 137.51 70.8155 137.604 70.7714C137.698 70.7274 137.784 70.6628 137.856 70.5813C137.928 70.4998 137.985 70.403 138.024 70.2964C138.063 70.1898 138.083 70.0756 138.083 69.9602C138.083 69.8448 138.063 69.7306 138.024 69.624C137.985 69.5174 137.928 69.4206 137.856 69.3391C137.784 69.2576 137.698 69.1929 137.604 69.1489C137.51 69.1049 137.409 69.0823 137.307 69.0825H121.579C121.478 69.0823 121.377 69.1049 121.282 69.1489C121.188 69.1929 121.103 69.2576 121.03 69.3391C120.958 69.4206 120.901 69.5174 120.862 69.624C120.823 69.7306 120.803 69.8448 120.803 69.9602C120.803 70.0756 120.823 70.1898 120.862 70.2964C120.901 70.403 120.958 70.4998 121.03 70.5813C121.103 70.6628 121.188 70.7274 121.282 70.7714C121.377 70.8155 121.478 70.838 121.579 70.8378H137.307Z" fill="white"/>
<path d="M137.307 65.6669C137.512 65.6669 137.71 65.5745 137.855 65.4099C138 65.2453 138.082 65.022 138.082 64.7893C138.082 64.5565 138 64.3333 137.855 64.1687C137.71 64.0041 137.512 63.9116 137.307 63.9116H121.58C121.478 63.9116 121.377 63.9343 121.283 63.9784C121.189 64.0225 121.103 64.0872 121.031 64.1687C120.959 64.2502 120.902 64.3469 120.863 64.4534C120.824 64.5599 120.804 64.674 120.804 64.7893C120.804 64.9045 120.824 65.0187 120.863 65.1251C120.902 65.2316 120.959 65.3284 121.031 65.4099C121.103 65.4914 121.189 65.556 121.283 65.6001C121.377 65.6442 121.478 65.6669 121.58 65.6669H137.307Z" fill="white"/>
<path d="M129.443 49.2666C130.408 49.2666 131.352 49.5906 132.154 50.1976C132.957 50.8047 133.582 51.6675 133.952 52.6769C134.321 53.6864 134.418 54.7972 134.229 55.8688C134.041 56.9404 133.576 57.9248 132.894 58.6974C132.211 59.47 131.342 59.9962 130.395 60.2093C129.448 60.4225 128.467 60.3131 127.576 59.895C126.684 59.4768 125.922 58.7688 125.385 57.8603C124.849 56.9518 124.563 55.8837 124.563 54.791C124.564 53.3264 125.079 51.9222 125.994 50.8865C126.909 49.8508 128.149 49.2683 129.443 49.2666V49.2666Z" fill="white"/>
</g>
<defs>
<clipPath id="clip0">
<rect width="189" height="176" fill="white"/>
</clipPath>
</defs>
</svg>
